<mxfile host="Electron" agent="Mozilla/5.0 (Windows NT 10.0; Win64; x64) AppleWebKit/537.36 (KHTML, like Gecko) draw.io/26.2.2 Chrome/134.0.6998.178 Electron/35.1.2 Safari/537.36" version="26.2.2">
  <diagram id="R2lEEEUBdFMjLlhIrx00" name="Page-1">
    <mxGraphModel dx="1680" dy="1046" grid="1" gridSize="10" guides="1" tooltips="1" connect="1" arrows="1" fold="1" page="1" pageScale="1" pageWidth="827" pageHeight="1169" math="0" shadow="0" extFonts="Permanent Marker^https://fonts.googleapis.com/css?family=Permanent+Marker">
      <root>
        <mxCell id="0" />
        <mxCell id="1" parent="0" />
        <mxCell id="oy4XWmKs3pjn0zVDLYOn-72" style="edgeStyle=orthogonalEdgeStyle;rounded=0;orthogonalLoop=1;jettySize=auto;html=1;" parent="1" source="oy4XWmKs3pjn0zVDLYOn-62" target="oy4XWmKs3pjn0zVDLYOn-63" edge="1">
          <mxGeometry relative="1" as="geometry" />
        </mxCell>
        <mxCell id="oy4XWmKs3pjn0zVDLYOn-62" value="is a" style="shape=rhombus;perimeter=rhombusPerimeter;whiteSpace=wrap;html=1;align=center;" parent="1" vertex="1">
          <mxGeometry x="450" y="390" width="40" height="40" as="geometry" />
        </mxCell>
        <mxCell id="oy4XWmKs3pjn0zVDLYOn-63" value="Pokemon" style="whiteSpace=wrap;html=1;align=center;" parent="1" vertex="1">
          <mxGeometry x="85" y="390" width="100" height="40" as="geometry" />
        </mxCell>
        <mxCell id="oy4XWmKs3pjn0zVDLYOn-66" value="Wild Pokemon" style="whiteSpace=wrap;html=1;align=center;" parent="1" vertex="1">
          <mxGeometry x="675.5" y="390" width="100" height="40" as="geometry" />
        </mxCell>
        <mxCell id="oy4XWmKs3pjn0zVDLYOn-67" value="" style="endArrow=none;html=1;rounded=0;" parent="1" source="oy4XWmKs3pjn0zVDLYOn-62" target="oy4XWmKs3pjn0zVDLYOn-66" edge="1">
          <mxGeometry relative="1" as="geometry">
            <mxPoint x="365" y="630" as="sourcePoint" />
            <mxPoint x="525" y="630" as="targetPoint" />
          </mxGeometry>
        </mxCell>
        <mxCell id="oy4XWmKs3pjn0zVDLYOn-68" value="Destination" style="whiteSpace=wrap;html=1;align=center;" parent="1" vertex="1">
          <mxGeometry x="675" y="620" width="100" height="40" as="geometry" />
        </mxCell>
        <mxCell id="oy4XWmKs3pjn0zVDLYOn-69" value="Trainer" style="whiteSpace=wrap;html=1;align=center;" parent="1" vertex="1">
          <mxGeometry x="330" y="777" width="100" height="40" as="geometry" />
        </mxCell>
        <mxCell id="oy4XWmKs3pjn0zVDLYOn-70" value="Attack" style="whiteSpace=wrap;html=1;align=center;" parent="1" vertex="1">
          <mxGeometry x="450" y="315" width="100" height="40" as="geometry" />
        </mxCell>
        <mxCell id="oy4XWmKs3pjn0zVDLYOn-71" value="City" style="whiteSpace=wrap;html=1;align=center;" parent="1" vertex="1">
          <mxGeometry x="675" y="860" width="100" height="40" as="geometry" />
        </mxCell>
        <mxCell id="oy4XWmKs3pjn0zVDLYOn-74" style="edgeStyle=orthogonalEdgeStyle;rounded=0;orthogonalLoop=1;jettySize=auto;html=1;" parent="1" source="oy4XWmKs3pjn0zVDLYOn-73" target="oy4XWmKs3pjn0zVDLYOn-68" edge="1">
          <mxGeometry relative="1" as="geometry" />
        </mxCell>
        <mxCell id="oy4XWmKs3pjn0zVDLYOn-73" value="is a" style="shape=rhombus;perimeter=rhombusPerimeter;whiteSpace=wrap;html=1;align=center;" parent="1" vertex="1">
          <mxGeometry x="705" y="737" width="40" height="40" as="geometry" />
        </mxCell>
        <mxCell id="oy4XWmKs3pjn0zVDLYOn-75" value="" style="endArrow=none;html=1;rounded=0;" parent="1" source="oy4XWmKs3pjn0zVDLYOn-71" target="oy4XWmKs3pjn0zVDLYOn-73" edge="1">
          <mxGeometry relative="1" as="geometry">
            <mxPoint x="365" y="630" as="sourcePoint" />
            <mxPoint x="525" y="630" as="targetPoint" />
          </mxGeometry>
        </mxCell>
        <mxCell id="oy4XWmKs3pjn0zVDLYOn-80" value="caught" style="shape=rhombus;perimeter=rhombusPerimeter;whiteSpace=wrap;html=1;align=center;" parent="1" vertex="1">
          <mxGeometry x="280" y="650" width="50" height="50" as="geometry" />
        </mxCell>
        <mxCell id="oy4XWmKs3pjn0zVDLYOn-86" value="Poke Center" style="shape=ext;margin=3;double=1;whiteSpace=wrap;html=1;align=center;" parent="1" vertex="1">
          <mxGeometry x="675.5" y="1040" width="100" height="40" as="geometry" />
        </mxCell>
        <mxCell id="oy4XWmKs3pjn0zVDLYOn-87" value="located in" style="shape=rhombus;perimeter=rhombusPerimeter;whiteSpace=wrap;html=1;align=center;" parent="1" vertex="1">
          <mxGeometry x="687.5" y="927" width="75" height="50" as="geometry" />
        </mxCell>
        <mxCell id="oy4XWmKs3pjn0zVDLYOn-90" value="Shop" style="shape=ext;margin=3;double=1;whiteSpace=wrap;html=1;align=center;" parent="1" vertex="1">
          <mxGeometry x="522.5" y="1040" width="100" height="40" as="geometry" />
        </mxCell>
        <mxCell id="oy4XWmKs3pjn0zVDLYOn-92" value="located in" style="shape=rhombus;perimeter=rhombusPerimeter;whiteSpace=wrap;html=1;align=center;" parent="1" vertex="1">
          <mxGeometry x="535" y="855" width="75" height="50" as="geometry" />
        </mxCell>
        <mxCell id="oy4XWmKs3pjn0zVDLYOn-94" value="Items" style="whiteSpace=wrap;html=1;align=center;" parent="1" vertex="1">
          <mxGeometry x="85" y="1040" width="100" height="40" as="geometry" />
        </mxCell>
        <mxCell id="oy4XWmKs3pjn0zVDLYOn-98" value="owns" style="shape=rhombus;perimeter=rhombusPerimeter;whiteSpace=wrap;html=1;align=center;" parent="1" vertex="1">
          <mxGeometry x="355" y="927" width="50" height="50" as="geometry" />
        </mxCell>
        <mxCell id="oy4XWmKs3pjn0zVDLYOn-106" value="" style="endArrow=none;html=1;rounded=0;" parent="1" source="oy4XWmKs3pjn0zVDLYOn-98" target="oy4XWmKs3pjn0zVDLYOn-69" edge="1">
          <mxGeometry relative="1" as="geometry">
            <mxPoint x="285.0022222222224" y="792.2222222222222" as="sourcePoint" />
            <mxPoint x="334.655" y="670" as="targetPoint" />
          </mxGeometry>
        </mxCell>
        <mxCell id="oy4XWmKs3pjn0zVDLYOn-107" value="M" style="resizable=0;html=1;whiteSpace=wrap;align=right;verticalAlign=bottom;" parent="oy4XWmKs3pjn0zVDLYOn-106" connectable="0" vertex="1">
          <mxGeometry x="1" relative="1" as="geometry">
            <mxPoint x="-9" y="20" as="offset" />
          </mxGeometry>
        </mxCell>
        <mxCell id="oy4XWmKs3pjn0zVDLYOn-111" value="wears" style="shape=rhombus;perimeter=rhombusPerimeter;whiteSpace=wrap;html=1;align=center;" parent="1" vertex="1">
          <mxGeometry x="110" y="620" width="50" height="50" as="geometry" />
        </mxCell>
        <mxCell id="oy4XWmKs3pjn0zVDLYOn-122" value="" style="endArrow=none;html=1;rounded=0;" parent="1" source="oy4XWmKs3pjn0zVDLYOn-83" target="oy4XWmKs3pjn0zVDLYOn-70" edge="1">
          <mxGeometry relative="1" as="geometry">
            <mxPoint x="395" y="720" as="sourcePoint" />
            <mxPoint x="555" y="720" as="targetPoint" />
          </mxGeometry>
        </mxCell>
        <mxCell id="oy4XWmKs3pjn0zVDLYOn-124" value="N" style="resizable=0;html=1;whiteSpace=wrap;align=right;verticalAlign=bottom;" parent="oy4XWmKs3pjn0zVDLYOn-122" connectable="0" vertex="1">
          <mxGeometry x="1" relative="1" as="geometry">
            <mxPoint x="-8" as="offset" />
          </mxGeometry>
        </mxCell>
        <mxCell id="oy4XWmKs3pjn0zVDLYOn-125" value="" style="endArrow=none;html=1;rounded=0;" parent="1" source="oy4XWmKs3pjn0zVDLYOn-63" target="oy4XWmKs3pjn0zVDLYOn-83" edge="1">
          <mxGeometry relative="1" as="geometry">
            <mxPoint x="139" y="430" as="sourcePoint" />
            <mxPoint x="96" y="570" as="targetPoint" />
          </mxGeometry>
        </mxCell>
        <mxCell id="oy4XWmKs3pjn0zVDLYOn-126" value="M" style="resizable=0;html=1;whiteSpace=wrap;align=left;verticalAlign=bottom;" parent="oy4XWmKs3pjn0zVDLYOn-125" connectable="0" vertex="1">
          <mxGeometry x="-1" relative="1" as="geometry">
            <mxPoint x="-1" y="-2" as="offset" />
          </mxGeometry>
        </mxCell>
        <mxCell id="oy4XWmKs3pjn0zVDLYOn-83" value="knows" style="shape=rhombus;perimeter=rhombusPerimeter;whiteSpace=wrap;html=1;align=center;" parent="1" vertex="1">
          <mxGeometry x="339" y="310" width="50" height="50" as="geometry" />
        </mxCell>
        <mxCell id="oy4XWmKs3pjn0zVDLYOn-128" value="" style="endArrow=none;html=1;rounded=0;" parent="1" source="oy4XWmKs3pjn0zVDLYOn-80" target="oy4XWmKs3pjn0zVDLYOn-69" edge="1">
          <mxGeometry relative="1" as="geometry">
            <mxPoint x="395" y="720" as="sourcePoint" />
            <mxPoint x="555" y="720" as="targetPoint" />
          </mxGeometry>
        </mxCell>
        <mxCell id="oy4XWmKs3pjn0zVDLYOn-129" value="N" style="resizable=0;html=1;whiteSpace=wrap;align=right;verticalAlign=bottom;" parent="oy4XWmKs3pjn0zVDLYOn-128" connectable="0" vertex="1">
          <mxGeometry x="1" relative="1" as="geometry">
            <mxPoint x="9" as="offset" />
          </mxGeometry>
        </mxCell>
        <mxCell id="oy4XWmKs3pjn0zVDLYOn-130" value="" style="endArrow=none;html=1;rounded=0;" parent="1" source="oy4XWmKs3pjn0zVDLYOn-80" target="oy4XWmKs3pjn0zVDLYOn-63" edge="1">
          <mxGeometry relative="1" as="geometry">
            <mxPoint x="395" y="720" as="sourcePoint" />
            <mxPoint x="555" y="720" as="targetPoint" />
          </mxGeometry>
        </mxCell>
        <mxCell id="oy4XWmKs3pjn0zVDLYOn-131" value="1" style="resizable=0;html=1;whiteSpace=wrap;align=right;verticalAlign=bottom;" parent="oy4XWmKs3pjn0zVDLYOn-130" connectable="0" vertex="1">
          <mxGeometry x="1" relative="1" as="geometry">
            <mxPoint x="21" y="20" as="offset" />
          </mxGeometry>
        </mxCell>
        <mxCell id="oy4XWmKs3pjn0zVDLYOn-133" value="" style="endArrow=none;html=1;rounded=0;" parent="1" source="oy4XWmKs3pjn0zVDLYOn-68" target="oy4XWmKs3pjn0zVDLYOn-135" edge="1">
          <mxGeometry relative="1" as="geometry">
            <mxPoint x="517.5" y="700" as="sourcePoint" />
            <mxPoint x="517.5" y="510" as="targetPoint" />
          </mxGeometry>
        </mxCell>
        <mxCell id="oy4XWmKs3pjn0zVDLYOn-134" value="M" style="resizable=0;html=1;whiteSpace=wrap;align=left;verticalAlign=bottom;" parent="oy4XWmKs3pjn0zVDLYOn-133" connectable="0" vertex="1">
          <mxGeometry x="-1" relative="1" as="geometry">
            <mxPoint x="-6" y="18" as="offset" />
          </mxGeometry>
        </mxCell>
        <mxCell id="oy4XWmKs3pjn0zVDLYOn-135" value="is in" style="shape=rhombus;perimeter=rhombusPerimeter;whiteSpace=wrap;html=1;align=center;" parent="1" vertex="1">
          <mxGeometry x="510" y="777" width="50" height="40" as="geometry" />
        </mxCell>
        <mxCell id="oy4XWmKs3pjn0zVDLYOn-136" value="" style="endArrow=none;html=1;rounded=0;" parent="1" source="oy4XWmKs3pjn0zVDLYOn-135" target="oy4XWmKs3pjn0zVDLYOn-69" edge="1">
          <mxGeometry relative="1" as="geometry">
            <mxPoint x="157.5" y="710" as="sourcePoint" />
            <mxPoint x="517.5" y="510" as="targetPoint" />
          </mxGeometry>
        </mxCell>
        <mxCell id="oy4XWmKs3pjn0zVDLYOn-137" value="N" style="resizable=0;html=1;whiteSpace=wrap;align=right;verticalAlign=bottom;" parent="oy4XWmKs3pjn0zVDLYOn-136" connectable="0" vertex="1">
          <mxGeometry x="1" relative="1" as="geometry">
            <mxPoint x="12" y="-5" as="offset" />
          </mxGeometry>
        </mxCell>
        <mxCell id="oy4XWmKs3pjn0zVDLYOn-141" value="" style="endArrow=none;html=1;rounded=0;" parent="1" source="oy4XWmKs3pjn0zVDLYOn-90" target="oy4XWmKs3pjn0zVDLYOn-95" edge="1">
          <mxGeometry relative="1" as="geometry">
            <mxPoint x="345" y="900" as="sourcePoint" />
            <mxPoint x="155" y="860" as="targetPoint" />
          </mxGeometry>
        </mxCell>
        <mxCell id="oy4XWmKs3pjn0zVDLYOn-142" value="M" style="resizable=0;html=1;whiteSpace=wrap;align=left;verticalAlign=bottom;" parent="oy4XWmKs3pjn0zVDLYOn-141" connectable="0" vertex="1">
          <mxGeometry x="-1" relative="1" as="geometry">
            <mxPoint x="-15" y="-1" as="offset" />
          </mxGeometry>
        </mxCell>
        <mxCell id="oy4XWmKs3pjn0zVDLYOn-95" value="sells" style="shape=rhombus;perimeter=rhombusPerimeter;whiteSpace=wrap;html=1;align=center;" parent="1" vertex="1">
          <mxGeometry x="300" y="1035" width="50" height="50" as="geometry" />
        </mxCell>
        <mxCell id="oy4XWmKs3pjn0zVDLYOn-146" value="" style="endArrow=none;html=1;rounded=0;dashed=1;dashPattern=1 2;" parent="1" source="oy4XWmKs3pjn0zVDLYOn-98" target="oy4XWmKs3pjn0zVDLYOn-94" edge="1">
          <mxGeometry relative="1" as="geometry">
            <mxPoint x="225" y="830" as="sourcePoint" />
            <mxPoint x="555" y="720" as="targetPoint" />
          </mxGeometry>
        </mxCell>
        <mxCell id="oy4XWmKs3pjn0zVDLYOn-147" value="N" style="resizable=0;html=1;whiteSpace=wrap;align=right;verticalAlign=bottom;" parent="oy4XWmKs3pjn0zVDLYOn-146" connectable="0" vertex="1">
          <mxGeometry x="1" relative="1" as="geometry">
            <mxPoint x="26" y="1" as="offset" />
          </mxGeometry>
        </mxCell>
        <mxCell id="oy4XWmKs3pjn0zVDLYOn-148" value="" style="endArrow=none;html=1;rounded=0;" parent="1" source="oy4XWmKs3pjn0zVDLYOn-92" target="oy4XWmKs3pjn0zVDLYOn-90" edge="1">
          <mxGeometry relative="1" as="geometry">
            <mxPoint x="395" y="720" as="sourcePoint" />
            <mxPoint x="555" y="720" as="targetPoint" />
          </mxGeometry>
        </mxCell>
        <mxCell id="oy4XWmKs3pjn0zVDLYOn-149" value="N" style="resizable=0;html=1;whiteSpace=wrap;align=right;verticalAlign=bottom;" parent="oy4XWmKs3pjn0zVDLYOn-148" connectable="0" vertex="1">
          <mxGeometry x="1" relative="1" as="geometry">
            <mxPoint x="12" y="2" as="offset" />
          </mxGeometry>
        </mxCell>
        <mxCell id="oy4XWmKs3pjn0zVDLYOn-150" value="" style="endArrow=none;html=1;rounded=0;" parent="1" source="oy4XWmKs3pjn0zVDLYOn-92" target="oy4XWmKs3pjn0zVDLYOn-71" edge="1">
          <mxGeometry relative="1" as="geometry">
            <mxPoint x="575" y="930" as="sourcePoint" />
            <mxPoint x="455" y="924" as="targetPoint" />
          </mxGeometry>
        </mxCell>
        <mxCell id="oy4XWmKs3pjn0zVDLYOn-151" value="1" style="resizable=0;html=1;whiteSpace=wrap;align=right;verticalAlign=bottom;" parent="oy4XWmKs3pjn0zVDLYOn-150" connectable="0" vertex="1">
          <mxGeometry x="1" relative="1" as="geometry" />
        </mxCell>
        <mxCell id="oy4XWmKs3pjn0zVDLYOn-152" value="" style="endArrow=none;html=1;rounded=0;" parent="1" source="oy4XWmKs3pjn0zVDLYOn-87" target="oy4XWmKs3pjn0zVDLYOn-86" edge="1">
          <mxGeometry relative="1" as="geometry">
            <mxPoint x="539" y="932" as="sourcePoint" />
            <mxPoint x="485" y="870" as="targetPoint" />
          </mxGeometry>
        </mxCell>
        <mxCell id="oy4XWmKs3pjn0zVDLYOn-153" value="N" style="resizable=0;html=1;whiteSpace=wrap;align=right;verticalAlign=bottom;" parent="oy4XWmKs3pjn0zVDLYOn-152" connectable="0" vertex="1">
          <mxGeometry x="1" relative="1" as="geometry">
            <mxPoint x="13" y="3" as="offset" />
          </mxGeometry>
        </mxCell>
        <mxCell id="oy4XWmKs3pjn0zVDLYOn-154" value="" style="endArrow=none;html=1;rounded=0;" parent="1" source="oy4XWmKs3pjn0zVDLYOn-87" target="oy4XWmKs3pjn0zVDLYOn-71" edge="1">
          <mxGeometry relative="1" as="geometry">
            <mxPoint x="599" y="928" as="sourcePoint" />
            <mxPoint x="685" y="904" as="targetPoint" />
          </mxGeometry>
        </mxCell>
        <mxCell id="oy4XWmKs3pjn0zVDLYOn-155" value="1" style="resizable=0;html=1;whiteSpace=wrap;align=right;verticalAlign=bottom;" parent="oy4XWmKs3pjn0zVDLYOn-154" connectable="0" vertex="1">
          <mxGeometry x="1" relative="1" as="geometry">
            <mxPoint x="-2" y="16" as="offset" />
          </mxGeometry>
        </mxCell>
        <mxCell id="EIcoKnqhOw7Y9KkXc619-2" value="Type" style="whiteSpace=wrap;html=1;align=center;" vertex="1" parent="1">
          <mxGeometry x="370" y="565" width="100" height="40" as="geometry" />
        </mxCell>
        <mxCell id="EIcoKnqhOw7Y9KkXc619-6" value="" style="endArrow=none;html=1;rounded=0;elbow=vertical;" edge="1" parent="1" source="EIcoKnqhOw7Y9KkXc619-10" target="EIcoKnqhOw7Y9KkXc619-2">
          <mxGeometry relative="1" as="geometry">
            <mxPoint x="365" y="760" as="sourcePoint" />
            <mxPoint x="525" y="760" as="targetPoint" />
          </mxGeometry>
        </mxCell>
        <mxCell id="EIcoKnqhOw7Y9KkXc619-8" value="N" style="resizable=0;html=1;whiteSpace=wrap;align=right;verticalAlign=bottom;" connectable="0" vertex="1" parent="EIcoKnqhOw7Y9KkXc619-6">
          <mxGeometry x="1" relative="1" as="geometry" />
        </mxCell>
        <mxCell id="EIcoKnqhOw7Y9KkXc619-9" style="edgeStyle=elbowEdgeStyle;shape=arrow;rounded=0;orthogonalLoop=1;jettySize=auto;elbow=vertical;html=1;exitX=0.5;exitY=1;exitDx=0;exitDy=0;" edge="1" parent="1" source="EIcoKnqhOw7Y9KkXc619-2" target="EIcoKnqhOw7Y9KkXc619-2">
          <mxGeometry relative="1" as="geometry" />
        </mxCell>
        <mxCell id="EIcoKnqhOw7Y9KkXc619-11" value="" style="endArrow=none;html=1;rounded=0;elbow=vertical;" edge="1" parent="1" source="oy4XWmKs3pjn0zVDLYOn-63" target="EIcoKnqhOw7Y9KkXc619-10">
          <mxGeometry relative="1" as="geometry">
            <mxPoint x="195" y="425" as="sourcePoint" />
            <mxPoint x="450" y="505" as="targetPoint" />
          </mxGeometry>
        </mxCell>
        <mxCell id="EIcoKnqhOw7Y9KkXc619-12" value="M" style="resizable=0;html=1;whiteSpace=wrap;align=left;verticalAlign=bottom;" connectable="0" vertex="1" parent="EIcoKnqhOw7Y9KkXc619-11">
          <mxGeometry x="-1" relative="1" as="geometry">
            <mxPoint x="-1" y="18" as="offset" />
          </mxGeometry>
        </mxCell>
        <mxCell id="EIcoKnqhOw7Y9KkXc619-10" value="has" style="shape=rhombus;perimeter=rhombusPerimeter;whiteSpace=wrap;html=1;align=center;" vertex="1" parent="1">
          <mxGeometry x="395" y="470" width="50" height="50" as="geometry" />
        </mxCell>
        <mxCell id="EIcoKnqhOw7Y9KkXc619-14" value="" style="endArrow=none;html=1;rounded=0;elbow=vertical;" edge="1" parent="1" source="EIcoKnqhOw7Y9KkXc619-17" target="EIcoKnqhOw7Y9KkXc619-2">
          <mxGeometry relative="1" as="geometry">
            <mxPoint x="365" y="760" as="sourcePoint" />
            <mxPoint x="605" y="480" as="targetPoint" />
            <Array as="points">
              <mxPoint x="550" y="585" />
            </Array>
          </mxGeometry>
        </mxCell>
        <mxCell id="EIcoKnqhOw7Y9KkXc619-16" value="N" style="resizable=0;html=1;whiteSpace=wrap;align=right;verticalAlign=bottom;" connectable="0" vertex="1" parent="EIcoKnqhOw7Y9KkXc619-14">
          <mxGeometry x="1" relative="1" as="geometry">
            <mxPoint x="12" y="-1" as="offset" />
          </mxGeometry>
        </mxCell>
        <mxCell id="EIcoKnqhOw7Y9KkXc619-21" value="" style="endArrow=none;html=1;rounded=0;elbow=vertical;" edge="1" parent="1" source="EIcoKnqhOw7Y9KkXc619-2" target="EIcoKnqhOw7Y9KkXc619-17">
          <mxGeometry relative="1" as="geometry">
            <mxPoint x="467" y="540" as="sourcePoint" />
            <mxPoint x="385" y="590" as="targetPoint" />
          </mxGeometry>
        </mxCell>
        <mxCell id="EIcoKnqhOw7Y9KkXc619-22" value="M" style="resizable=0;html=1;whiteSpace=wrap;align=left;verticalAlign=bottom;" connectable="0" vertex="1" parent="EIcoKnqhOw7Y9KkXc619-21">
          <mxGeometry x="-1" relative="1" as="geometry">
            <mxPoint x="-11" y="16" as="offset" />
          </mxGeometry>
        </mxCell>
        <mxCell id="EIcoKnqhOw7Y9KkXc619-17" value="strong against" style="shape=rhombus;perimeter=rhombusPerimeter;whiteSpace=wrap;html=1;align=center;" vertex="1" parent="1">
          <mxGeometry x="517" y="610" width="70" height="50" as="geometry" />
        </mxCell>
        <mxCell id="EIcoKnqhOw7Y9KkXc619-24" value="" style="endArrow=none;html=1;rounded=0;dashed=1;dashPattern=1 2;elbow=vertical;" edge="1" parent="1" source="oy4XWmKs3pjn0zVDLYOn-76" target="oy4XWmKs3pjn0zVDLYOn-68">
          <mxGeometry relative="1" as="geometry">
            <mxPoint x="365" y="760" as="sourcePoint" />
            <mxPoint x="525" y="760" as="targetPoint" />
          </mxGeometry>
        </mxCell>
        <mxCell id="EIcoKnqhOw7Y9KkXc619-26" value="N" style="resizable=0;html=1;whiteSpace=wrap;align=right;verticalAlign=bottom;" connectable="0" vertex="1" parent="EIcoKnqhOw7Y9KkXc619-24">
          <mxGeometry x="1" relative="1" as="geometry" />
        </mxCell>
        <mxCell id="EIcoKnqhOw7Y9KkXc619-27" style="edgeStyle=elbowEdgeStyle;shape=arrow;rounded=0;orthogonalLoop=1;jettySize=auto;elbow=vertical;html=1;exitX=1;exitY=1;exitDx=0;exitDy=0;" edge="1" parent="1" source="oy4XWmKs3pjn0zVDLYOn-76" target="oy4XWmKs3pjn0zVDLYOn-76">
          <mxGeometry relative="1" as="geometry" />
        </mxCell>
        <mxCell id="EIcoKnqhOw7Y9KkXc619-28" value="" style="endArrow=none;html=1;rounded=0;dashed=1;dashPattern=1 2;elbow=vertical;" edge="1" parent="1" source="oy4XWmKs3pjn0zVDLYOn-66" target="oy4XWmKs3pjn0zVDLYOn-76">
          <mxGeometry relative="1" as="geometry">
            <mxPoint x="725" y="430" as="sourcePoint" />
            <mxPoint x="725" y="620" as="targetPoint" />
          </mxGeometry>
        </mxCell>
        <mxCell id="EIcoKnqhOw7Y9KkXc619-29" value="M" style="resizable=0;html=1;whiteSpace=wrap;align=left;verticalAlign=bottom;" connectable="0" vertex="1" parent="EIcoKnqhOw7Y9KkXc619-28">
          <mxGeometry x="-1" relative="1" as="geometry">
            <mxPoint y="17" as="offset" />
          </mxGeometry>
        </mxCell>
        <mxCell id="oy4XWmKs3pjn0zVDLYOn-76" value="located in" style="shape=rhombus;perimeter=rhombusPerimeter;whiteSpace=wrap;html=1;align=center;" parent="1" vertex="1">
          <mxGeometry x="688" y="500" width="75" height="40" as="geometry" />
        </mxCell>
        <mxCell id="EIcoKnqhOw7Y9KkXc619-31" value="" style="endArrow=none;html=1;rounded=0;dashed=1;dashPattern=1 2;elbow=vertical;" edge="1" parent="1" source="oy4XWmKs3pjn0zVDLYOn-111" target="oy4XWmKs3pjn0zVDLYOn-63">
          <mxGeometry relative="1" as="geometry">
            <mxPoint x="365" y="760" as="sourcePoint" />
            <mxPoint x="305" y="740" as="targetPoint" />
          </mxGeometry>
        </mxCell>
        <mxCell id="EIcoKnqhOw7Y9KkXc619-32" value="N" style="resizable=0;html=1;whiteSpace=wrap;align=right;verticalAlign=bottom;" connectable="0" vertex="1" parent="EIcoKnqhOw7Y9KkXc619-31">
          <mxGeometry x="1" relative="1" as="geometry">
            <mxPoint y="17" as="offset" />
          </mxGeometry>
        </mxCell>
        <mxCell id="EIcoKnqhOw7Y9KkXc619-33" value="" style="endArrow=none;html=1;rounded=0;dashed=1;dashPattern=1 2;elbow=vertical;" edge="1" parent="1" source="oy4XWmKs3pjn0zVDLYOn-111" target="oy4XWmKs3pjn0zVDLYOn-94">
          <mxGeometry relative="1" as="geometry">
            <mxPoint x="365" y="760" as="sourcePoint" />
            <mxPoint x="245" y="860" as="targetPoint" />
          </mxGeometry>
        </mxCell>
        <mxCell id="EIcoKnqhOw7Y9KkXc619-34" value="1" style="resizable=0;html=1;whiteSpace=wrap;align=right;verticalAlign=bottom;" connectable="0" vertex="1" parent="EIcoKnqhOw7Y9KkXc619-33">
          <mxGeometry x="1" relative="1" as="geometry" />
        </mxCell>
        <mxCell id="EIcoKnqhOw7Y9KkXc619-35" value="" style="endArrow=none;html=1;rounded=0;dashed=1;dashPattern=1 2;elbow=vertical;" edge="1" parent="1" source="oy4XWmKs3pjn0zVDLYOn-95" target="oy4XWmKs3pjn0zVDLYOn-94">
          <mxGeometry relative="1" as="geometry">
            <mxPoint x="365" y="760" as="sourcePoint" />
            <mxPoint x="525" y="760" as="targetPoint" />
          </mxGeometry>
        </mxCell>
        <mxCell id="EIcoKnqhOw7Y9KkXc619-36" value="N" style="resizable=0;html=1;whiteSpace=wrap;align=right;verticalAlign=bottom;" connectable="0" vertex="1" parent="EIcoKnqhOw7Y9KkXc619-35">
          <mxGeometry x="1" relative="1" as="geometry">
            <mxPoint x="23" y="20" as="offset" />
          </mxGeometry>
        </mxCell>
        <mxCell id="EIcoKnqhOw7Y9KkXc619-37" value="factor" style="ellipse;whiteSpace=wrap;html=1;align=center;" vertex="1" parent="1">
          <mxGeometry x="475" y="660" width="50" height="20" as="geometry" />
        </mxCell>
        <mxCell id="EIcoKnqhOw7Y9KkXc619-38" value="" style="endArrow=none;html=1;rounded=0;elbow=vertical;" edge="1" parent="1" source="EIcoKnqhOw7Y9KkXc619-37" target="EIcoKnqhOw7Y9KkXc619-17">
          <mxGeometry relative="1" as="geometry">
            <mxPoint x="365" y="760" as="sourcePoint" />
            <mxPoint x="525" y="760" as="targetPoint" />
          </mxGeometry>
        </mxCell>
        <mxCell id="EIcoKnqhOw7Y9KkXc619-39" value="hp" style="ellipse;whiteSpace=wrap;html=1;align=center;" vertex="1" parent="1">
          <mxGeometry y="315.5" width="50" height="20" as="geometry" />
        </mxCell>
        <mxCell id="EIcoKnqhOw7Y9KkXc619-40" value="" style="endArrow=none;html=1;rounded=0;elbow=vertical;" edge="1" parent="1" source="EIcoKnqhOw7Y9KkXc619-39" target="oy4XWmKs3pjn0zVDLYOn-63">
          <mxGeometry relative="1" as="geometry">
            <mxPoint x="270" y="520" as="sourcePoint" />
            <mxPoint x="430" y="520" as="targetPoint" />
          </mxGeometry>
        </mxCell>
        <mxCell id="EIcoKnqhOw7Y9KkXc619-41" value="attack" style="ellipse;whiteSpace=wrap;html=1;align=center;" vertex="1" parent="1">
          <mxGeometry x="60" y="315.5" width="50" height="20" as="geometry" />
        </mxCell>
        <mxCell id="EIcoKnqhOw7Y9KkXc619-42" value="" style="endArrow=none;html=1;rounded=0;elbow=vertical;" edge="1" source="EIcoKnqhOw7Y9KkXc619-41" parent="1" target="oy4XWmKs3pjn0zVDLYOn-63">
          <mxGeometry relative="1" as="geometry">
            <mxPoint x="375" y="540" as="sourcePoint" />
            <mxPoint x="245" y="410" as="targetPoint" />
          </mxGeometry>
        </mxCell>
        <mxCell id="EIcoKnqhOw7Y9KkXc619-43" value="defense" style="ellipse;whiteSpace=wrap;html=1;align=center;" vertex="1" parent="1">
          <mxGeometry x="116" y="315.5" width="50" height="20" as="geometry" />
        </mxCell>
        <mxCell id="EIcoKnqhOw7Y9KkXc619-44" value="" style="endArrow=none;html=1;rounded=0;elbow=vertical;" edge="1" parent="1" source="EIcoKnqhOw7Y9KkXc619-43" target="oy4XWmKs3pjn0zVDLYOn-63">
          <mxGeometry relative="1" as="geometry">
            <mxPoint x="96" y="320" as="sourcePoint" />
            <mxPoint x="143" y="400" as="targetPoint" />
          </mxGeometry>
        </mxCell>
        <mxCell id="EIcoKnqhOw7Y9KkXc619-45" value="catch&lt;div&gt;propability&lt;/div&gt;" style="ellipse;whiteSpace=wrap;html=1;align=center;" vertex="1" parent="1">
          <mxGeometry x="730" y="307.5" width="70" height="42.5" as="geometry" />
        </mxCell>
        <mxCell id="EIcoKnqhOw7Y9KkXc619-47" value="" style="endArrow=none;html=1;rounded=0;elbow=vertical;" edge="1" parent="1" source="EIcoKnqhOw7Y9KkXc619-45" target="oy4XWmKs3pjn0zVDLYOn-66">
          <mxGeometry relative="1" as="geometry">
            <mxPoint x="155" y="320" as="sourcePoint" />
            <mxPoint x="160" y="410" as="targetPoint" />
          </mxGeometry>
        </mxCell>
        <mxCell id="EIcoKnqhOw7Y9KkXc619-48" value="level" style="ellipse;whiteSpace=wrap;html=1;align=center;" vertex="1" parent="1">
          <mxGeometry y="370" width="50" height="20" as="geometry" />
        </mxCell>
        <mxCell id="EIcoKnqhOw7Y9KkXc619-49" value="" style="endArrow=none;html=1;rounded=0;elbow=vertical;" edge="1" parent="1" source="EIcoKnqhOw7Y9KkXc619-48" target="oy4XWmKs3pjn0zVDLYOn-63">
          <mxGeometry relative="1" as="geometry">
            <mxPoint x="207" y="328" as="sourcePoint" />
            <mxPoint x="158" y="400" as="targetPoint" />
          </mxGeometry>
        </mxCell>
        <mxCell id="EIcoKnqhOw7Y9KkXc619-50" value="min Level" style="ellipse;whiteSpace=wrap;html=1;align=center;" vertex="1" parent="1">
          <mxGeometry x="750" y="460" width="60" height="30" as="geometry" />
        </mxCell>
        <mxCell id="EIcoKnqhOw7Y9KkXc619-52" value="" style="endArrow=none;html=1;rounded=0;elbow=vertical;" edge="1" parent="1" source="oy4XWmKs3pjn0zVDLYOn-76" target="EIcoKnqhOw7Y9KkXc619-50">
          <mxGeometry relative="1" as="geometry">
            <mxPoint x="270" y="520" as="sourcePoint" />
            <mxPoint x="430" y="520" as="targetPoint" />
          </mxGeometry>
        </mxCell>
        <mxCell id="EIcoKnqhOw7Y9KkXc619-53" value="name" style="ellipse;whiteSpace=wrap;html=1;align=center;" vertex="1" parent="1">
          <mxGeometry y="342" width="50" height="20" as="geometry" />
        </mxCell>
        <mxCell id="EIcoKnqhOw7Y9KkXc619-54" value="" style="endArrow=none;html=1;rounded=0;elbow=vertical;" edge="1" parent="1" source="EIcoKnqhOw7Y9KkXc619-53" target="oy4XWmKs3pjn0zVDLYOn-63">
          <mxGeometry relative="1" as="geometry">
            <mxPoint x="204" y="320" as="sourcePoint" />
            <mxPoint x="160" y="410" as="targetPoint" />
          </mxGeometry>
        </mxCell>
        <mxCell id="EIcoKnqhOw7Y9KkXc619-56" value="ID" style="ellipse;whiteSpace=wrap;html=1;align=center;fontStyle=4;" vertex="1" parent="1">
          <mxGeometry y="400" width="50" height="20" as="geometry" />
        </mxCell>
        <mxCell id="EIcoKnqhOw7Y9KkXc619-57" value="" style="endArrow=none;html=1;rounded=0;elbow=vertical;" edge="1" parent="1" source="EIcoKnqhOw7Y9KkXc619-56" target="oy4XWmKs3pjn0zVDLYOn-63">
          <mxGeometry relative="1" as="geometry">
            <mxPoint x="45" y="329" as="sourcePoint" />
            <mxPoint x="123" y="400" as="targetPoint" />
          </mxGeometry>
        </mxCell>
        <mxCell id="EIcoKnqhOw7Y9KkXc619-59" value="" style="endArrow=none;html=1;rounded=0;elbow=vertical;" edge="1" parent="1" source="EIcoKnqhOw7Y9KkXc619-82" target="EIcoKnqhOw7Y9KkXc619-2">
          <mxGeometry relative="1" as="geometry">
            <mxPoint x="515" y="460" as="sourcePoint" />
            <mxPoint x="169" y="400" as="targetPoint" />
          </mxGeometry>
        </mxCell>
        <mxCell id="EIcoKnqhOw7Y9KkXc619-60" value="name" style="ellipse;whiteSpace=wrap;html=1;align=center;" vertex="1" parent="1">
          <mxGeometry x="240" y="817" width="50" height="20" as="geometry" />
        </mxCell>
        <mxCell id="EIcoKnqhOw7Y9KkXc619-64" value="" style="endArrow=none;html=1;rounded=0;elbow=vertical;" edge="1" parent="1" source="oy4XWmKs3pjn0zVDLYOn-69" target="EIcoKnqhOw7Y9KkXc619-60">
          <mxGeometry relative="1" as="geometry">
            <mxPoint x="270" y="680" as="sourcePoint" />
            <mxPoint x="430" y="680" as="targetPoint" />
          </mxGeometry>
        </mxCell>
        <mxCell id="EIcoKnqhOw7Y9KkXc619-66" value="" style="endArrow=none;html=1;rounded=0;elbow=vertical;" edge="1" target="EIcoKnqhOw7Y9KkXc619-77" parent="1" source="oy4XWmKs3pjn0zVDLYOn-94">
          <mxGeometry relative="1" as="geometry">
            <mxPoint x="30" y="1010" as="sourcePoint" />
            <mxPoint x="70" y="980" as="targetPoint" />
          </mxGeometry>
        </mxCell>
        <mxCell id="EIcoKnqhOw7Y9KkXc619-69" value="" style="endArrow=none;html=1;rounded=0;elbow=vertical;" edge="1" target="EIcoKnqhOw7Y9KkXc619-90" parent="1" source="oy4XWmKs3pjn0zVDLYOn-68">
          <mxGeometry relative="1" as="geometry">
            <mxPoint x="705" y="650" as="sourcePoint" />
            <mxPoint x="765.7152330911472" y="680.7152330911472" as="targetPoint" />
          </mxGeometry>
        </mxCell>
        <mxCell id="EIcoKnqhOw7Y9KkXc619-71" value="" style="endArrow=none;html=1;rounded=0;elbow=vertical;" edge="1" target="EIcoKnqhOw7Y9KkXc619-72" parent="1" source="oy4XWmKs3pjn0zVDLYOn-69">
          <mxGeometry relative="1" as="geometry">
            <mxPoint x="298" y="590" as="sourcePoint" />
            <mxPoint x="302.7849157766882" y="558.7250601595083" as="targetPoint" />
          </mxGeometry>
        </mxCell>
        <mxCell id="EIcoKnqhOw7Y9KkXc619-72" value="ID" style="ellipse;whiteSpace=wrap;html=1;align=center;fontStyle=4;" vertex="1" parent="1">
          <mxGeometry x="240" y="787" width="50" height="20" as="geometry" />
        </mxCell>
        <mxCell id="EIcoKnqhOw7Y9KkXc619-75" value="" style="endArrow=none;html=1;rounded=0;elbow=vertical;" edge="1" target="EIcoKnqhOw7Y9KkXc619-76" parent="1" source="oy4XWmKs3pjn0zVDLYOn-70">
          <mxGeometry relative="1" as="geometry">
            <mxPoint x="30" y="670" as="sourcePoint" />
            <mxPoint x="57.784915776688194" y="648.7250601595083" as="targetPoint" />
          </mxGeometry>
        </mxCell>
        <mxCell id="EIcoKnqhOw7Y9KkXc619-76" value="name" style="ellipse;whiteSpace=wrap;html=1;align=center;fontStyle=4;" vertex="1" parent="1">
          <mxGeometry x="472.5" y="280" width="50" height="20" as="geometry" />
        </mxCell>
        <mxCell id="EIcoKnqhOw7Y9KkXc619-77" value="name" style="ellipse;whiteSpace=wrap;html=1;align=center;fontStyle=4;" vertex="1" parent="1">
          <mxGeometry x="10" y="1050" width="50" height="20" as="geometry" />
        </mxCell>
        <mxCell id="EIcoKnqhOw7Y9KkXc619-78" value="max Level" style="ellipse;whiteSpace=wrap;html=1;align=center;" vertex="1" parent="1">
          <mxGeometry x="763" y="520" width="60" height="30" as="geometry" />
        </mxCell>
        <mxCell id="EIcoKnqhOw7Y9KkXc619-79" value="" style="endArrow=none;html=1;rounded=0;elbow=vertical;" edge="1" parent="1" source="oy4XWmKs3pjn0zVDLYOn-76" target="EIcoKnqhOw7Y9KkXc619-78">
          <mxGeometry relative="1" as="geometry">
            <mxPoint x="750" y="518" as="sourcePoint" />
            <mxPoint x="775" y="498" as="targetPoint" />
          </mxGeometry>
        </mxCell>
        <mxCell id="EIcoKnqhOw7Y9KkXc619-82" value="name" style="ellipse;whiteSpace=wrap;html=1;align=center;fontStyle=4;" vertex="1" parent="1">
          <mxGeometry x="305" y="575" width="50" height="20" as="geometry" />
        </mxCell>
        <mxCell id="EIcoKnqhOw7Y9KkXc619-83" value="money" style="ellipse;whiteSpace=wrap;html=1;align=center;" vertex="1" parent="1">
          <mxGeometry x="280" y="837" width="50" height="20" as="geometry" />
        </mxCell>
        <mxCell id="EIcoKnqhOw7Y9KkXc619-84" value="" style="endArrow=none;html=1;rounded=0;elbow=vertical;" edge="1" target="EIcoKnqhOw7Y9KkXc619-83" parent="1" source="oy4XWmKs3pjn0zVDLYOn-69">
          <mxGeometry relative="1" as="geometry">
            <mxPoint x="278" y="720" as="sourcePoint" />
            <mxPoint x="455" y="820" as="targetPoint" />
          </mxGeometry>
        </mxCell>
        <mxCell id="EIcoKnqhOw7Y9KkXc619-85" value="costs" style="ellipse;whiteSpace=wrap;html=1;align=center;" vertex="1" parent="1">
          <mxGeometry x="10" y="1085" width="50" height="20" as="geometry" />
        </mxCell>
        <mxCell id="EIcoKnqhOw7Y9KkXc619-86" value="" style="endArrow=none;html=1;rounded=0;elbow=vertical;" edge="1" target="EIcoKnqhOw7Y9KkXc619-85" parent="1" source="oy4XWmKs3pjn0zVDLYOn-94">
          <mxGeometry relative="1" as="geometry">
            <mxPoint x="272" y="630" as="sourcePoint" />
            <mxPoint x="465" y="830" as="targetPoint" />
          </mxGeometry>
        </mxCell>
        <mxCell id="EIcoKnqhOw7Y9KkXc619-90" value="name" style="ellipse;whiteSpace=wrap;html=1;align=center;fontStyle=4;" vertex="1" parent="1">
          <mxGeometry x="763" y="680" width="50" height="20" as="geometry" />
        </mxCell>
      </root>
    </mxGraphModel>
  </diagram>
</mxfile>
